<?xml version="1.0" encoding="utf-8"?>
<!-- Generator: Adobe Illustrator 25.0.1, SVG Export Plug-In . SVG Version: 6.00 Build 0)  -->
<svg version="1.1" id="Layer_1" xmlns="http://www.w3.org/2000/svg" xmlns:xlink="http://www.w3.org/1999/xlink" x="0px" y="0px"
	 viewBox="0 0 1486.22 1486.22" style="enable-background:new 0 0 1486.22 1486.22;" xml:space="preserve">
<style type="text/css">
	.st0{opacity:0.19;fill:#FFFFFF;stroke:#FFFFFF;stroke-width:6.5251;stroke-miterlimit:10;}
	.st1{clip-path:url(#SVGID_2_);}
	.st2{opacity:0.34;fill:#FFFFFF;}
	.st3{fill:#FFFFFF;}
	.st4{opacity:0.65;fill:#FFFFFF;}
	.st5{opacity:0.72;fill:#FFFFFF;}
	.st6{opacity:0.79;fill:#FFFFFF;}
	.st7{opacity:0.86;fill:#FFFFFF;}
	.st8{opacity:0.93;fill:#FFFFFF;}
	.st9{opacity:0.5;fill:#FFFFFF;}
	.st10{opacity:0.3;fill:#939598;}
	.st11{fill:#939598;}
	.st12{opacity:0.76;fill:#939598;}
	.st13{opacity:0.52;fill:#939598;}
	.st14{opacity:0.88;fill:#939598;}
	.st15{opacity:0.64;fill:#939598;}
	.st16{opacity:0.4;fill:#939598;}
	.st17{opacity:0.36;fill:#939598;}
	.st18{opacity:0.46;fill:#939598;}
	.st19{opacity:0.58;fill:#939598;}
	.st20{opacity:0.7;fill:#939598;}
	.st21{opacity:0.82;fill:#939598;}
	.st22{opacity:0.94;fill:#939598;}
	.st23{opacity:0.8;fill:#FFFFFF;}
	.st24{opacity:0.6;fill:#FFFFFF;}
	.st25{opacity:0.4;fill:#FFFFFF;}
	.st26{opacity:0.7;fill:#FFFFFF;}
	.st27{opacity:0.9;fill:#FFFFFF;}
	.st28{opacity:0.85;fill:#FFFFFF;}
	.st29{opacity:0.75;fill:#FFFFFF;}
	.st30{opacity:0.55;fill:#FFFFFF;}
	.st31{opacity:0.95;fill:#FFFFFF;}
	.st32{opacity:0.45;fill:#FFFFFF;}
	.st33{opacity:0.8;}
	.st34{opacity:0.6;}
	.st35{opacity:0.4;}
	.st36{opacity:0.7;}
	.st37{opacity:0.9;}
	.st38{opacity:0.5;}
	.st39{opacity:0.85;}
	.st40{opacity:0.75;}
	.st41{opacity:0.65;}
	.st42{opacity:0.55;}
	.st43{opacity:0.95;}
	.st44{opacity:0.45;}
	.st45{fill:#090505;stroke:#090505;stroke-width:7;stroke-miterlimit:10;}
	.st46{opacity:0.3;}
	.st47{opacity:0.76;}
	.st48{opacity:0.52;}
	.st49{opacity:0.88;}
	.st50{opacity:0.64;}
	.st51{fill:#090505;stroke:#090505;stroke-width:3.8339;stroke-miterlimit:10;}
	.st52{fill:#090505;}
	.st53{fill:#FFFFFF;stroke:#FFFFFF;stroke-width:0.8111;stroke-miterlimit:10;}
	.st54{stroke:#000000;stroke-width:2.4057;stroke-miterlimit:10;}
	.st55{fill:none;}
	.st56{stroke:#000000;stroke-width:2.1593;stroke-miterlimit:10;}
	.st57{fill:#FFFFFF;stroke:#FFFFFF;stroke-miterlimit:10;}
	.st58{fill:#FFFFFF;stroke:#FFFFFF;stroke-width:7;stroke-miterlimit:10;}
</style>
<path class="st0" d="M746.26,1350.25L746.26,1350.25c-332.8,0-602.59-269.79-602.59-602.59v0c0-332.8,269.79-602.59,602.59-602.59h0
	c332.8,0,602.59,269.79,602.59,602.59v0C1348.85,1080.46,1079.06,1350.25,746.26,1350.25z"/>
<g>
	<g>
		<path class="st57" d="M1191.98,1162.13c-0.4,0.7-0.66,1.54-1.21,2.09c-16.58,16.49-33.15,33.03-51.56,47.51
			c-12.86,10.11-25.8,20.15-39.21,29.5c-11.34,7.91-23.39,14.79-35.14,22.11c-5.04,3.14-9.95,6.53-15.18,9.3
			c-12.69,6.74-25.45,13.36-38.34,19.71c-10.79,5.31-21.69,10.45-32.76,15.15c-9.42,4-19.12,7.36-28.75,10.85
			c-15.74,5.69-31.58,11.01-48.11,14.06c-5.65,1.04-11.11,3.06-16.74,4.2c-11.09,2.24-22.2,4.42-33.37,6.19
			c-11.73,1.86-23.51,3.51-35.32,4.71c-10.92,1.11-21.9,1.76-32.87,2.12c-14.19,0.46-28.4,0.85-42.59,0.49
			c-21.06-0.52-42.03-2.58-62.88-5.55c-15.3-2.18-30.55-4.76-45.78-7.43c-5.29-0.93-10.43-2.7-15.65-4.05
			c-12.18-3.16-24.55-5.7-36.5-9.57c-16.22-5.26-32.51-10.46-48.07-17.61c-13.56-6.23-27.37-11.95-40.8-18.44
			c-11.96-5.78-23.9-11.76-35.25-18.64c-16.89-10.23-33.32-21.22-49.8-32.11c-5.69-3.76-11.07-8.01-16.35-12.34
			c-12.32-10.12-24.7-20.2-36.66-30.74c-9.41-8.3-18.28-17.21-27.3-25.96c-4.62-4.49-9.14-9.1-13.5-13.84
			c-3.88-4.22-7.45-8.72-11.23-13.04c-2.47-2.83-5.15-5.48-7.57-8.36c-9.83-11.68-20.21-22.96-29.13-35.3
			c-4.59-6.35-10.39-11.74-14.27-18.59c-1.58-2.79-3.35-5.47-5.01-8.21c-5.28-8.72-10.51-17.48-15.83-26.18
			c-3.28-5.36-7.05-10.45-9.98-15.99c-4.52-8.53-8.24-17.49-12.85-25.96c-2.21-4.06-4.44-8.08-6.27-12.33
			c-4.97-11.55-10.15-23-15.01-34.59c-2.98-7.11-5.66-14.35-8.23-21.62c-1.3-3.66-2.02-7.53-3.08-11.28
			c-1.51-5.36-3.1-10.69-4.62-16.04c-1.42-5-3-9.97-4.16-15.03c-2.69-11.73-5.54-23.43-7.64-35.27
			c-2.79-15.73-5.24-31.54-7.24-47.39c-1.5-11.87-2.32-23.84-2.96-35.79c-0.63-11.62,0.05-23.34-1.13-34.88
			c-1.1-10.68,0.87-21.14,0.55-31.73c-0.22-7.13,1.2-14.32,1.88-21.48c0.6-6.25,0.94-12.54,1.86-18.75
			c2.15-14.56,3.31-29.26,6.77-43.65c3.19-13.28,5.69-26.72,8.6-40.07c0.76-3.5,1.85-6.94,2.87-10.38
			c5.63-18.96,11.33-37.9,18.98-56.17c3.82-9.12,7.84-18.15,11.93-27.15c4.77-10.47,9.47-21,14.69-31.25
			c5.13-10.08,10.58-20.02,16.42-29.7c7.33-12.16,14.79-24.28,22.95-35.9c8.47-12.06,17.57-23.71,26.85-35.16
			c14.75-18.19,30.7-35.31,47.53-51.6c29.6-28.65,61.85-53.89,96.73-75.82c22.75-14.3,46.19-27.34,70.56-38.6
			c14.53-6.71,29.58-12.28,44.43-18.28c23.78-9.61,48.48-16.18,73.46-21.74c26.02-5.79,52.27-10.11,78.85-12.62
			c26.04-2.46,52.12-3.52,78.25-2.73c29.37,0.89,58.55,3.98,87.52,8.88c22.55,3.82,45.08,7.88,66.8,15.27
			c15.84,5.39,31.59,11.04,47.31,16.75c21.7,7.89,42.41,17.99,62.91,28.51c33.56,17.22,65.08,37.73,94.99,60.66
			c9.4,7.21,18.03,15.43,26.97,23.25c6.09,5.33,12.31,10.52,18.07,16.19c8.21,8.07,16.25,16.34,24,24.85
			c9.81,10.77,19.44,21.71,28.79,32.88c5.16,6.17,9.13,13.35,14.44,19.38c8.63,9.79,14.01,21.67,21.74,32.06
			c6.93,9.31,12.46,19.73,18.08,29.95c7.97,14.5,15.74,29.13,23.03,43.98c4.99,10.16,9.18,20.73,13.41,31.24
			c4.64,11.5,9.31,23.02,13.24,34.77c3.98,11.94,7.04,24.18,10.56,36.27c4.87,16.76,9.29,33.64,11.82,50.92
			c1.74,11.92,2.95,23.92,4.42,35.89c0.31,2.5,0.85,4.97,1.07,7.48c0.72,8.24,1.53,16.48,1.94,24.73
			c0.69,13.8,1.37,27.61,1.52,41.42c0.09,8.25-0.76,16.52-1.33,24.77c-0.52,7.5-1.24,14.99-2.85,22.43c0-2.95-0.06-5.91,0.01-8.86
			c0.49-19.07,1.42-38.14,1.37-57.21c-0.03-12.39-1.36-24.79-2.31-37.17c-2.4-31.32-8.62-62.01-15.54-92.58
			c-3.59-15.84-8.99-31.1-13.72-46.57c-7.55-24.68-18.12-48.16-28.9-71.53c-11.11-24.08-24.74-46.76-39.07-69.03
			c-15.34-23.83-33.35-45.56-51.98-66.86c-15.93-18.22-33.93-34.3-51.5-50.81c-8.37-7.87-17.83-14.58-26.84-21.77
			c-5.77-4.6-11.54-9.2-17.43-13.64c-3.3-2.49-6.82-4.69-10.28-6.95c-12.64-8.29-25.18-16.74-37.99-24.76
			c-14.35-8.98-29.01-17.43-44.57-24.21c-16-6.98-31.71-14.66-47.93-21.06c-19.92-7.86-40.29-14.5-61.11-19.73
			c-25.18-6.33-50.57-11.6-76.25-15.15c-30.19-4.17-60.59-6.03-91.08-4.89c-17.45,0.65-34.91,1.65-52.31,3.13
			c-10.57,0.9-21.03,2.98-31.53,4.61c-20.66,3.19-41.14,7.3-61.19,13.21c-18.14,5.34-36.26,10.82-54.03,17.24
			c-13.52,4.89-26.5,11.25-39.65,17.12c-27.69,12.36-53.91,27.35-79.28,43.92c-15.54,10.15-30.53,21-44.78,32.88
			c-10.5,8.75-21.3,17.17-31.46,26.31c-9.48,8.53-18.57,17.55-27.33,26.83c-11.61,12.3-23.05,24.78-33.94,37.72
			c-7.63,9.06-14.5,18.79-21.18,28.59c-10.03,14.7-20.02,29.47-29.22,44.7c-6.39,10.58-11.42,21.98-17.06,33.01
			c-1.06,2.08-2.24,4.11-3.2,6.23c-4.21,9.33-8.33,18.69-12.54,28.02c-1.4,3.1-3.08,6.08-4.37,9.22c-1.59,3.86-1.47,3.91-6.51,2.85
			c-1.58,4.92-3.18,9.93-4.99,15.56c6.5-2.16,4.28-9.02,8.09-12.49c1.49,2.2,0.52,4.27-0.13,6.13
			c-5.17,14.73-10.42,29.43-15.68,44.12c-0.5,1.39-0.6,2.81-3.13,2.78c-2.12-0.02-3.04,4.12-1.1,5.45c2.53,1.73,1.8,3.56,1.29,5.64
			c-3.32,13.45-6.94,26.83-9.85,40.37c-1.89,8.78-2.81,17.77-4.03,26.68c-1.46,10.7-3.05,21.39-4,32.13
			c-0.27,2.98-3.58,3.79-3.28,6.27c0.25,2.09,2.33,4.1,2.23,6.07c-0.35,7.15-1.27,14.27-1.99,21.41c-0.13,1.25-0.49,2.49-0.45,3.73
			c0.46,12.2,0.99,24.4,1.5,36.6c0.22,5.21,0.42,10.43,0.67,15.64c0.13,2.73,0.11,5.37-2.58,6.89c6.43,9.23,4.25,18.63,1.63,28.43
			c3.88,0.39,4.67,3.13,5.14,6.08c0.9,5.68,1.79,11.37,2.66,17.05c2.09,13.69,4.62,27.27,8,40.74c5.57,22.19,12.01,44.1,19.12,65.82
			c3.24,9.9,7.74,19.39,11.44,29.15c9.4,24.8,21.79,48.16,34.24,71.48c4.9,9.18,10.65,17.9,15.96,26.86c0.81,1.38,1.39,2.9,1.98,4.4
			c0.84,2.13,1.16,4.59,2.44,6.38c3.08,4.33,5.74,8.88,10.1,12.39c4.09,3.29,7.98,7.26,9.3,12.91c0.33,1.4,1.72,2.7,2.89,3.74
			c4.21,3.77,7.54,8.06,9.89,13.28c1.53,3.39,3.73,6.59,6.15,9.43c5.82,6.84,11.98,13.39,17.94,20.11c2.05,2.32,4.46,3.94,7.16,5.51
			c3.65,2.13,6.79,5.22,9.93,8.13c10.97,10.12,21.65,20.57,32.81,30.47c12.78,11.35,26.15,22.01,40.25,31.68
			c14.25,9.77,28.65,19.33,43.2,28.65c16.24,10.4,33.4,19.19,50.82,27.43c12.21,5.77,24.35,11.78,36.93,16.64
			c14.76,5.71,29.91,10.45,44.99,15.3c10.97,3.53,22,6.97,33.19,9.67c12.94,3.12,26.06,5.6,39.17,7.93
			c11.34,2.02,22.75,3.81,34.19,5.06c14.31,1.57,28.67,3.05,43.04,3.54c18.89,0.64,37.84,0.79,56.73,0.17
			c14.56-0.48,29.06-2.52,43.59-3.76c23.76-2.04,47.09-6.83,70.16-12.47c32.38-7.93,64.05-18.19,94.78-31.35
			c15.92-6.82,31.13-15.01,46.71-22.46c22.69-10.86,43.21-25.27,64-39.11c12.65-8.43,24.96-17.62,36.31-27.97
			c9.84-8.97,20.31-17.23,30.29-26.05c5.39-4.76,10.31-10.04,15.46-15.08c0.72-0.71,1.52-1.34,2.29-2.01
			C1191.6,1161.82,1191.79,1161.98,1191.98,1162.13z M185.55,549.36c-0.48,0.03-0.95,0.06-1.43,0.09
			c-1.85,5.12-4.24,10.08-4.99,16.74c5.71-4.09,5.74-9.79,7.76-14.42C187.12,551.26,186.03,550.17,185.55,549.36z M198.12,511.43
			c3.87-2.91,6.83-8.65,6.02-12.62C201.44,503.1,199.31,506.69,198.12,511.43z M187,544.71c-0.06-0.32-0.12-0.64-0.18-0.96
			c-0.35,0.19-0.75,0.33-1.03,0.6c-0.06,0.06,0.27,0.54,0.42,0.83C186.48,545.02,186.74,544.87,187,544.71z M206.76,496.4
			c-0.18-0.43-0.3-0.7-0.41-0.97c-0.36,0.26-0.78,0.48-1.06,0.81c-0.08,0.1,0.22,0.51,0.35,0.79
			C206.02,496.82,206.39,496.61,206.76,496.4z M211.82,483.55c0.25-0.07,0.5-0.14,0.74-0.21c-0.21-0.68-0.42-1.36-0.62-2.05
			c-0.23,0.07-0.45,0.13-0.68,0.2C211.45,482.17,211.63,482.86,211.82,483.55z"/>
		<path class="st57" d="M569.89,1377.13c3.02,0,6.04,0.12,9.05-0.03c4.25-0.22,7.21-3.44,10.9-5c0.56-0.24,1.14-1.04,1.23-1.65
			c0.99-6.73,7.6-7.57,11.72-10.92c1.07-0.87,3.77,0.12,5.68,0.47c1.74,0.32,3.4,1.14,5.15,1.36c13.01,1.69,26.09,2.95,39.05,5
			c20.64,3.28,41.33,5.76,62.17,7.4c38.2,3.01,76.3,1.85,114.28-2.61c19.11-2.25,38.06-5.9,57.11-8.68
			c6.36-0.93,12.89-1.88,19.22-1.33c4.5,0.39,10.14,0.13,12.96,5.69c0.5,0.98,2.95,0.97,5.5,1.71c2.07,4.41,7.51,4.98,12.53,5.85
			c5.64,0.98,11.41,1.22,17.12,1.79c-1.07,2.02-3.25,2.18-5.44,2.57c-5.4,0.97-10.75,0.46-16.08-0.31
			c-16.59-2.4-33.23-3.44-49.99-2.21c-5.16,0.38-10.36,0.16-15.53,0.45c-2.65,0.15-5.27,1.05-7.92,1.19
			c-4.29,0.23-8.6,0.07-12.9,0.18c-9.52,0.23-19.03,0.66-28.55,0.75c-15.02,0.15-30.05,0.07-45.07,0.11
			c-10.38,0.03-20.82,0.75-31.14,0c-9.47-0.69-18.91,0.35-28.37-0.64c-5.85-0.61-11.82,0.11-17.73-0.05
			c-9.14-0.26-18.28-0.73-27.41-1.17c-5.89-0.28-11.77-0.77-17.66-0.98c-7.53-0.27-15.06-0.39-22.59-0.53
			c-11.04-0.21-21.77,2.11-32.59,3.82C586.19,1380.66,577.89,1379.89,569.89,1377.13z"/>
		<path class="st57" d="M182.41,993.71c-6.44-16.19-13.11-32.28-19.25-48.58c-9.8-25.98-16.61-52.88-23.07-79.83
			c-3.55-14.83-5.54-30.06-7.84-45.17c-1.57-10.31-2.72-20.7-3.61-31.1c-1.94-22.61-2.18-45.24-1.37-67.93
			c0.87-24.33,3.46-48.46,6.98-72.51c4.62-31.57,11.44-62.67,21.03-93.13c11.27-35.79,25.53-70.36,42.59-103.78
			c10.74-21.03,23-41.16,36.14-60.76c0.78-1.16,1.76-2.19,3.33-2.91c-0.69,1.24-1.29,2.54-2.07,3.72
			c-12.47,18.75-23.79,38.17-34.26,58.1c-9.81,18.66-18.65,37.75-25.88,57.54c-5.73,15.69-10.86,31.61-16.14,47.47
			c-0.74,2.21-2.21,4.47-0.37,7.07c0.49,0.7-0.3,2.37-0.63,3.56c-9.89,35.82-16.24,72.32-20.25,109.2
			c-1.63,15-1.76,30.16-2.43,45.26c-0.61,13.82-0.95,27.66-1.56,41.48c-0.97,21.97-0.4,43.87,3.26,65.6
			c1.91,11.35,3.58,22.78,6.37,33.92c5.11,20.38,8.42,41.19,14.68,61.29c7.17,23.03,14.93,45.85,24.5,68.01
			c0.42,0.96,0.79,1.94,1.18,2.91C183.29,993.35,182.85,993.53,182.41,993.71z"/>
		<path class="st57" d="M150.62,967.82c-0.51-0.17-0.96-0.36-1.42-0.47c-0.47-0.11-0.97-0.15-1.61-0.25
			c-0.25-4.91,0-9.84-3.17-14.33c-1.35,0.45-2.65,0.88-4.01,1.33c-0.06,0.66-0.21,1.19-0.13,1.67c0.31,1.77,0.91,3.52,0.99,5.29
			c0.05,1.11-0.31,2.57-1.05,3.33c-2.25,2.32-4.67,4.49-7.2,6.49c-2.4,1.89-5,3.26-8.37,2.99c-2.27-0.19-4.79,0.11-6.91,0.94
			c-7.06,2.74-11.74-0.82-16.01-5.61c-1.31-1.47-2.3-3.21-3.54-4.99c1.3-3.14,1.4-6.86,4.66-9.75c0.57,1.45,0.99,2.52,1.58,4.03
			c8.61-10.63,17.03-10.9,25.12,0.97c-1.43-10.49-8.97-13.28-24.16-8.82c1.75-1.45,2.69-2.64,3.91-3.14
			c3.53-1.44,6.61-3.35,9.31-6.11c1.91-1.95,6.28-1.66,8.33,0.65c3.81,4.29,8.04,3.04,12.54,1.79c1.49-0.42,3.19-0.07,5.24-0.07
			c-1.19-6.57-7.23-8.21-11.68-10.47c-4.75-2.41-10.53-2.79-15.94-4.08c0.84-0.45,1.85-1.13,2.95-1.57
			c7.87-3.11,15.73-6.24,23.64-9.23c4.74-1.8,5.46-1.42,7,3.37c3.69,11.47,7.25,22.99,11.03,34.43c1.58,4.77,3.73,9.35,5.42,14.08
			c1.58,4.47,1.18,5.36-3.23,6.74c-6.25,1.96-12.22,5.01-19.43,5.42C147.38,977.69,150.7,973.53,150.62,967.82z M122.99,969.77
			c-2.72-3.66-6.23-2.38-9.46-2.07c-0.87-2.63-1.48-5.17-4.53-5.6c-2.07,4.14-0.94,7.35,3.47,9.96
			C116.83,974.63,119.89,974.01,122.99,969.77z M121.49,956.13c-4.11-4.76-7.13-5.45-10.16-2.12c-0.78,0.86-1.44,2.96-0.97,3.56
			c0.69,0.88,2.57,1.45,3.73,1.2C116.61,958.21,119,957.06,121.49,956.13z M122.42,964.79c2.97,1.1,3.4-0.24,3.41-1.98
			c0-0.41-0.4-0.81-0.83-1.62C124.14,962.41,123.47,963.34,122.42,964.79z M160.77,958.29c-0.33-0.07-0.66-0.14-1-0.22
			c-0.24,0.9-0.48,1.79-0.72,2.69c0.37,0.09,0.73,0.18,1.1,0.28C160.35,960.12,160.56,959.2,160.77,958.29z"/>
		<path class="st57" d="M1343.46,957.58c3.94-12.31,8.14-24.54,11.76-36.93c10.17-34.78,17.58-70.14,22.23-106.12
			c2.78-21.48,3.58-43.03,3.97-64.61c0.14-7.73-0.5-15.46-0.7-23.2c-0.11-4.11-2.01-7.48-4.04-10.85c-0.81-1.35-1.99-2.76-2.1-4.22
			c-0.53-7.17-0.78-14.36-1.09-21.54c-0.24-5.56-0.5-11.11-0.59-16.67c-0.06-3.38,0.3-6.76,0.27-10.14
			c-0.04-4.3,0.24-8.7-0.52-12.89c-3.41-18.76-7.04-37.48-10.81-56.16c-1.35-6.69-3.34-13.25-5-19.88
			c-0.32-1.29-0.45-2.63-0.23-3.97C1397.9,700.95,1394.11,830.05,1343.46,957.58z"/>
		<path class="st57" d="M87.91,984.7c0.83,2.27,1.88,4.49,2.42,6.83c0.37,1.6,0.74,3.96-0.11,4.93c-2.29,2.64-5.23,4.72-7.93,7.05
			c-10-5.26-14.64-14.08-17.14-24.33c-0.69-2.81-1.73-5.86,0.68-8.53c3.62,0.6,2.02,6.13,6.56,6.02c-0.35-1.76-0.64-3.24-0.94-4.73
			c3.68-2.83,5.02-9.56,2.62-13.22c-1.02-1.54-2.44-2.02-4.21-1.51c-1.43,0.41-2.87,0.79-4.3,1.19c-0.15-0.37-0.31-0.74-0.46-1.1
			c0.72-0.46,1.39-1.17,2.18-1.32c2.78-0.53,5.72-0.48,8.35-1.38c2.77-0.96,3.45,1.7,5.87,2.93c-0.81-3.34-1.43-5.88-2.1-8.61
			c3.34-3.09,7.6-2.85,11.47-3.8c2.7,3.09-0.1,5.53-0.5,8.33c0.67,0.82,1.42,1.74,2.19,2.68c-2.3,1.94-4.4,3.71-7.14,6.03
			c7.36,2.69,8.48,9.65,12.65,14.13c1.79,1.93,2.87,4.52,4.23,6.84c1.35,2.3,0.98,5.1-0.76,6.25c-2.33,1.54-5.47,1.14-7.2-0.63
			c-1.66-1.71-3.56-3.18-5.35-4.76C88.63,984.21,88.27,984.46,87.91,984.7z"/>
		<path class="st57" d="M933.12,132.59c3.52,2.11,6.93,4.45,10.6,6.26c4.5,2.23,7.95,0.02,8.17-4.92c0.04-0.89-0.14-1.79-0.29-2.67
			c-0.37-2.22,1.06-2.91,2.79-3.07c4.69-0.45,4.98-0.64,5.71-4.88c0.17-1.02,0.25-2.06,0.39-3.25c1.06,0.46,1.81,0.79,3.2,1.4
			c-0.54-2.64-0.98-4.81-1.48-7.28c7.87,2.38,11.11,7.8,11.72,15.14c-1.85,2.4-3.66,4.74-5.84,7.57c-1.46-0.53-3.22-1.18-5.33-1.95
			c-0.87,2.46-1.97,4.88-2.53,7.41c-0.54,2.44-1,4.72-4.05,4.77c-2.66,0.05-4.36-2.01-5.04-6.09c-1.87,0-3.87-0.31-5.75,0.06
			c-4.94,0.97-9.39-0.15-13.97-1.98c-4.14-1.65-8.63-2.41-12.93-3.66c-2.53-0.73-5-1.65-8.29-2.74c2.77-1.95,5.12-1.7,7.32-1.95
			c2.1-0.24,4.21-0.35,6.02-0.49c0.84-2.7,1.8-4.82,2.07-7.03c0.13-1.1-0.72-2.98-1.64-3.41c-2.87-1.36-2.37-3.17-1.37-5.32
			c2.33-5.03,9.07-8.83,14.55-8.18c1.07,0.13,2.14,0.28,3.2,0.49c0.33,0.06,0.62,0.33,1.13,0.63c-3.54,2.39-7.41,4.3-10.35,7.17
			c-3.03,2.96-3.58,7.23-3.19,12.87c1.68-2.37,2.66-3.76,3.76-5.31c2.28,3.48,1.89,7.04,1.59,10.59c-0.87-0.47-1.74-0.94-2.71-1.47
			c-0.75,4.91-0.27,5.76,4.3,6.95C934.22,136.13,933.67,134.36,933.12,132.59z"/>
		<path class="st57" d="M1358.5,801.95c0,3.44,0.32,6.91-0.06,10.31c-0.97,8.57-2.01,17.15-3.48,25.64
			c-2.55,14.7-5.52,29.32-8.17,44.01c-3.55,19.66-9.77,38.61-15.42,57.69c-2.59,8.73-6.57,17.1-10.42,25.4
			c-8.01,17.26-16.35,34.36-24.6,51.51c-0.74,1.55-1.76,2.96-3.04,4.26C1326.68,951.27,1349.55,878.72,1358.5,801.95z"/>
		<path class="st57" d="M1286.6,399.73c-4.52-2.23-15.65-16.09-18.98-22.58c-2.61-5.08-2.61-5.08-1.97-8.98
			c2.41,1.91,3.62-1.97,6.39-0.88c2.11,0.83,4.71,0.44,7.32,0.6c-0.33,2.42-0.59,4.31-0.89,6.47c5.42,1.08,7.88-1.76,11.09-5.47
			c3.31-3.83,3.25-7.94,4.64-12.23c0.56,1.4,1.12,2.81,1.81,4.57c0.39-1.33,0.71-2.4,1.36-4.61c3.07,5.15,6.12,9.23,8.21,13.91
			c0.81,1.82,0.34,3.53-1.15,4.9c-1.72,1.58-3.61,3.02-5.14,4.76c-2.64,3.01-5.36,5.15-9.78,3.88c-1.97-0.57-3.57,0.79-3.82,2.86
			c-0.27,2.25-0.25,4.55-0.13,6.82C1285.66,395.41,1286.12,397.05,1286.6,399.73z M1277.35,379.54c5.84,2.04,12.53-1.15,13.61-6.4
			C1286.44,375.27,1281.96,377.37,1277.35,379.54z"/>
		<path class="st57" d="M525.55,122.46c-0.39,3.52-0.7,6.29-1.15,10.35c1.28-1.99,1.93-3,3.01-4.67c0.49,2.63,0.86,4.6,1.21,6.48
			c3.85,1.34,8.14,1.02,10.73,4.46c-1.95,5.78-1.95,5.78-0.46,9.11c-5.02,4.71-5.22,3.9-11.07,1.73c-5.76-2.14-8.02-5.49-8.78-11.1
			c-0.22-1.61-2.27-2.97-3.72-4.73C516,128.53,519.41,124.98,525.55,122.46z"/>
		<path class="st57" d="M205.11,397.7c-2.71-1.59-4.81-2.33-5.27-5.2c-1.34-8.26-0.86-11.71,3-16.58c1.91,5.92,5.58,10.4,9.93,14.36
			c2.02,1.84,4.24,3.43,7.16,3.26c0.8-0.05,1.57-0.51,2.56-0.85c-1.46-3.68-5.55-0.32-6.88-3.32c2.57-6.56,6.79-8.94,13.98-7.73
			c1.67,4.88,0.29,10.47-3.63,13.24c-1.15,0.81-3.12,1.2-4.46,0.84c-2.92-0.78-5.71-2.11-8.49-3.33c-1.58-0.7-3.05-1.64-4.58-2.47
			C207.26,392.66,206.31,394.88,205.11,397.7z"/>
		<path class="st57" d="M1420.52,738.48c-6.74-14.1-18.01-14.61-31.18-10.33c-2.64-6.73-1.33-13.45-2-19.98
			c0.38-0.13,0.76-0.26,1.15-0.4c0.69,1.1,1.54,2.13,2.03,3.3c0.89,2.15,1.46,4.44,2.36,6.59c0.94,2.25,2.39,3.4,5.1,2.27
			c1.41-0.59,3.17-0.69,4.72-0.52c3.87,0.42,7.78,0.88,11.55,1.79c2.92,0.7,5.19,2.81,5.9,5.79c0.85,3.58,1.19,7.28,1.75,10.93
			C1421.43,738.1,1420.97,738.29,1420.52,738.48z"/>
		<path class="st57" d="M538.47,156.55c52.9-19.5,107.49-31.36,163.91-34.5C646.48,127.5,591.73,138.29,538.47,156.55z"/>
		<path class="st57" d="M1259.96,350c-1.54-1.82-3.09-3.64-4.89-5.75c0.9-2.3,2.84-3.33,5.58-3.67c1.66-0.21,3.94-0.78,4.67-1.97
			c1.79-2.91,4.74-3.07,7.35-3.87c1.36-0.42,3.33-0.14,4.56,0.61c2.56,1.55,4.8,3.61,7.96,6.07c-2.81,0.61-4.65,1.33-6.5,1.35
			c-5.65,0.05-10.44,2.22-14.97,5.33c-1.16,0.8-2.6,1.18-3.91,1.76L1259.96,350z"/>
		<path class="st57" d="M565.13,122.04c-0.94,0.44-1.68,0.79-2.64,1.24c0,2.65,1.4,4.56,3.26,6.36c2.74,2.65,2.85,3.82,0.37,6.77
			c-1.48,1.76-3.38,3.16-5.07,4.71c-1.91-1.57-3.67-3.03-6.13-5.05c0.15-1.19,0.41-3.2,0.79-6.19c1.32,1.83,2,2.77,3.02,4.18
			c0.81-1.19,2.09-2.23,1.96-3.03c-0.45-2.59-0.88-5.45-2.32-7.52c-1.56-2.25-4.13-3.88-6.45-5.51c-1.57-1.1-3.48-1.74-5.66-2.8
			c1.96-1.89,4.12-2.2,5.98-1.38c3.91,1.73,7.66,3.85,11.39,5.95C564.28,120.13,564.58,121.18,565.13,122.04z"/>
		<path class="st57" d="M212.24,361.46c3.36-4.7,7.7-7.92,13.44-8.8c1.8-0.28,3.91,0.26,5.65,0.98c2.13,0.88,4.02,2.34,6.02,3.53
			c1.72,1.03,2.77,2.29,1.67,4.4c-1.16,2.23-3.32,3.44-5.2,2.44c-6.71-3.55-13.69-3.59-20.87-2.04
			C212.82,362,212.66,361.78,212.24,361.46z"/>
		<path class="st57" d="M100.81,763.76c3.07-6.22,7.85-2.82,12.18-2.66c0.81-2.22-0.74-3.75-1.34-5.48
			c-0.94-2.7,0.36-3.51,2.76-3.45c2.99,6.88,2.99,6.88,9.1,6.97c1.52,1.45,2.11,3.36,0.93,5.19c-1.27,1.98-3.49,2.69-5.69,1.8
			c-3.91-1.57-7.46-1.63-11.25,0.59C104.54,768.44,102.47,766.59,100.81,763.76z"/>
		<path class="st57" d="M1397.01,764.22c10.01,0.58,18.74-1.93,23.97-11.73c0.31,3.24,0.06,6.24-2.23,8.72
			c-1.7,1.84-3.5,3.57-5.23,5.38c-1.88,1.97-4.06,2.56-6.8,2.15c-2.24-0.34-4.58-0.03-6.88,0.03
			C1397.15,768.84,1396.88,768.47,1397.01,764.22z"/>
		<path class="st57" d="M106.84,736.76c0.32,1.98,0.57,3.51,0.85,5.21c3.16-0.55,6.05-1.04,8.93-1.54c0.19,0.37,0.39,0.75,0.58,1.12
			c-0.78,0.59-1.6,1.76-2.32,1.69c-6.24-0.55-10.04,2.75-13.14,7.63c-0.84,1.32-2.5,2.12-4.27,3.56c-0.58-1.83-1.43-3.07-1.1-3.7
			c2.5-4.73,3.54-10.41,8.48-13.61C105.25,736.86,105.87,736.92,106.84,736.76z"/>
		<path class="st57" d="M1264.92,383.64c1.05,0.89,2.39,1.58,3.1,2.68c9.65,14.91,19.25,29.87,28.77,44.87
			c0.93,1.47,1.3,3.3,1.92,4.96l0.12-0.13c-1.6-2.07-3.37-4.03-4.76-6.23c-9.3-14.62-18.52-29.3-27.75-43.96
			c-0.47-0.75-0.87-1.54-1.29-2.32C1265.04,383.51,1264.92,383.64,1264.92,383.64z"/>
		<path class="st57" d="M558.1,1349.42c1.59-4.46,4.01-4.2,5.62-3.76c3.41,0.94,6.93,2.11,9.82,4.06c1.51,1.02,2.19,3.84,2.46,5.95
			c0.18,1.43-1.59,1.84-2.86,1.09c-2.16-1.26-4.29-2.61-6.28-4.12C564.43,1350.81,563.1,1347.18,558.1,1349.42z"/>
		<path class="st57" d="M1259.82,349.85c-0.38,2.78-0.76,5.56-1.2,8.74c-0.42,0.09-1.33,0.59-2.07,0.4
			c-2.95-0.75-7.89-6.93-8.16-9.97c-0.22-2.4,1.35-3.51,3.85-2.52c2.62,1.04,5.16,2.31,7.73,3.49
			C1259.96,350,1259.82,349.85,1259.82,349.85z"/>
		<path class="st57" d="M947.12,124.87c-3.9,0.05-5.67-1.06-5.53-3.44c0.16-2.52,3.16-5.88,5.32-5.94c2.52-0.07,5.84,3.27,5.93,5.98
			C952.92,123.63,950.91,124.82,947.12,124.87z"/>
		<path class="st57" d="M1283.87,363.93c-0.65-0.14-1.57-0.21-2.39-0.56c-1.63-0.69-3.51-1.25-3.32-3.62
			c0.2-2.48,2.57-4.94,4.83-4.98c0.71-0.01,1.44,0.12,2.13,0.29c2.77,0.66,5.05,3.49,4.68,5.75
			C1289.54,362.45,1286.7,364.01,1283.87,363.93z"/>
		<path class="st57" d="M949.82,1348.96c1.13-2.54,3.17-3.8,6.47-3.23c3.13,0.54,6.33,0.62,9.45,1.19c0.95,0.17,1.72,1.3,2.58,1.98
			c-0.74,0.86-1.48,2.45-2.24,2.46c-2.81,0.04-5.64-0.34-8.44-0.76C955.04,1350.19,952.47,1349.52,949.82,1348.96z"/>
		<path class="st57" d="M215.29,381.77c-3.42,0.05-5.85-1.3-5.87-3.25c-0.03-2.36,3.73-5.77,6.21-5.64
			c2.29,0.12,5.22,3.08,5.24,5.29C220.9,380.4,218.86,381.71,215.29,381.77z"/>
		<path class="st57" d="M1391.4,748.69c-0.17,1.6-0.29,2.76-0.49,4.62c-0.78-1.12-1.29-1.73-1.68-2.41
			c-2.38-4.17-1.79-8.05,1.8-13.01c-0.36,4.17,1.14,5.58,3.99,5.83c1.95,0.17,4.49,0.55,3.81,3.25c-0.63,2.51-2.95,2.74-5.27,1.92
			C1393.1,748.72,1392.54,748.78,1391.4,748.69z"/>
		<path class="st57" d="M308.9,1178.15c-9.03-7.59-17.21-16-24.25-25.48C293.92,1160.05,301.66,1168.86,308.9,1178.15z"/>
		<path class="st57" d="M538.75,133.04c-3.33,0-4.95-1.16-4.93-3.53c0.03-2.8,2.7-5.76,5.28-5.83c2.49-0.07,5.27,2.99,5.24,5.78
			C544.32,131.78,542.35,133.05,538.75,133.04z"/>
		<path class="st57" d="M1387.44,782.14c0.22-4.84,0.29-9.69,0.73-14.51c0.31-3.35,1.12-3.65,5.79-2.73
			c-1.3,6.01-3.03,11.84-4.95,17.61C1388.48,782.39,1387.96,782.26,1387.44,782.14z"/>
		<path class="st57" d="M111.95,780.69c-5.55,3.1-8.77-0.65-12.21-3.05c-2.88-2.01-2.81-2.27-1.97-5.95
			C102.44,774.65,106.97,777.53,111.95,780.69z"/>
		<path class="st57" d="M1405,748.25c2.19-4.99,5.6-6,8.43-3.21c0.65,0.64,1.24,1.96,1.02,2.71c-0.23,0.78-1.52,1.79-2.3,1.75
			C1409.94,749.38,1407.75,748.77,1405,748.25z"/>
		<path class="st57" d="M194.74,410.25c-4.61-2.09-4.87-5.79-1.31-11.84C197.33,402.16,194.94,406.11,194.74,410.25z"/>
		<path class="st57" d="M1264.35,364.55c-4.52-7.08-4.4-7.82,1.22-9.82C1267.29,358.1,1266.02,361.11,1264.35,364.55z"/>
		<path class="st57" d="M937.79,128.28c1.78,0.16,3.49,0.32,5.63,0.51c0.21,2.27,0.4,4.32,0.61,6.51
			C938.95,134.3,938.3,133.55,937.79,128.28z"/>
		<path class="st57" d="M1280.95,346.78c-3.49,0.9-6.97,1.8-11.33,2.93C1273.09,345.46,1276.71,344.78,1280.95,346.78z"/>
		<path class="st57" d="M564.03,1352.75c1.46,1.39,2.58,2.18,3.29,3.24c0.37,0.55,0.21,1.67-0.09,2.36
			c-0.2,0.46-1.31,1.01-1.63,0.83c-0.83-0.46-1.86-1.21-2.04-2.02C563.31,1356.06,563.76,1354.8,564.03,1352.75z"/>
		<path class="st57" d="M238.2,372.97c1.04,3.06-1.44,4.12-2.08,6.14C233.07,375.74,233.24,375.24,238.2,372.97z"/>
		<path class="st57" d="M215.54,1100.2c0.15-2.92,0.24-4.72,0.33-6.47c2.6-0.59,3.57,0.72,3.79,2.3
			C219.95,1098.14,218.3,1098.91,215.54,1100.2z"/>
		<path class="st57" d="M548.49,142.07c-1.74-1.25-2.77-2-4.04-2.92c1.41-1.91,2.58-3.5,4.04-5.48
			C548.49,136.37,548.49,138.59,548.49,142.07z"/>
		<path class="st57" d="M1298.72,436.15c3.37,3.24,4.73,7.59,7.01,11.44c-0.4,0.21-0.8,0.42-1.19,0.63c-1.9-4.06-3.8-8.12-5.7-12.18
			C1298.84,436.02,1298.72,436.15,1298.72,436.15z"/>
		<path class="st57" d="M749.99,120.08c4.6,0,9.2,0,13.8,0c0,0.09,0,0.18,0,0.27c-4.56,0-9.12,0-13.69,0
			C750.07,120.27,750.03,120.17,749.99,120.08z"/>
		<path class="st57" d="M1256.3,371.74c4.14,3.04,7.18,6.89,8.62,11.89c0,0.01,0.11-0.12,0.11-0.11c-2.87-3.96-5.74-7.94-8.61-11.91
			L1256.3,371.74z"/>
		<path class="st57" d="M553.1,143.11c-1.21,2.76-3.96,3.17-6.15,4.42c-0.22-0.32-0.45-0.64-0.67-0.96
			c1.99-1.46,3.99-2.91,5.98-4.37C552.55,142.51,552.82,142.81,553.1,143.11z"/>
		<path class="st57" d="M1267.65,358.51c1.76-1.6,2.89-2.62,4.58-4.16c0.61,1.88,0.99,3.04,1.55,4.74
			C1271.67,358.89,1270.2,358.75,1267.65,358.51z"/>
		<path class="st57" d="M787.65,121.39c-3.55,0-7.1,0-10.66,0c0-0.11,0-0.22,0-0.33c3.58,0,7.16,0,10.74,0
			C787.71,121.16,787.68,121.27,787.65,121.39z"/>
		<path class="st57" d="M221.3,401.45c-0.93,0.45-1.85,0.91-2.78,1.36c-0.34-0.72-0.68-1.44-1.03-2.16
			c1.06-0.33,2.12-0.66,3.18-0.99C220.89,400.25,221.09,400.85,221.3,401.45z"/>
		<path class="st57" d="M1287.51,1031.01c1.05-2.12,2.1-4.24,3.15-6.35c0.27,0.13,0.55,0.26,0.82,0.39
			c-1.04,2.12-2.08,4.24-3.12,6.37C1288.08,1031.28,1287.8,1031.14,1287.51,1031.01z"/>
		<path class="st57" d="M241.06,381.59c1.02-1.5,2.04-3.01,3.06-4.51c0.27,0.18,0.53,0.35,0.8,0.53c-1.08,1.46-2.17,2.91-3.25,4.37
			C241.47,381.85,241.27,381.72,241.06,381.59z"/>
		<path class="st57" d="M228.81,367.47c-2.01-0.62-4.01-1.24-6.02-1.86c0.08-0.28,0.17-0.56,0.25-0.84
			c2.01,0.61,4.02,1.21,6.04,1.82C228.99,366.89,228.9,367.18,228.81,367.47z"/>
		<path class="st57" d="M121.7,750.31c-1.52-0.72-3.04-1.45-4.56-2.17c0.11-0.26,0.22-0.52,0.34-0.78c1.6,0.64,3.21,1.28,4.81,1.92
			C122.09,749.62,121.89,749.97,121.7,750.31z"/>
		<path class="st57" d="M798.49,121.95c1.89,0.09,3.79,0.17,5.68,0.26c0,0.07-0.01,0.14-0.01,0.21c-1.9,0-3.79,0-5.69,0
			C798.48,122.26,798.49,122.1,798.49,121.95z"/>
		<path class="st57" d="M825.78,124.79c-1.2-0.07-2.4-0.14-3.6-0.21c0-0.03,0.01-0.06,0.01-0.09c1.2,0,2.4,0,3.59,0
			C825.78,124.59,825.78,124.69,825.78,124.79z"/>
		<path class="st57" d="M712.67,121.21c1.02,0,2.04,0,3.06,0c0,0.06,0,0.11,0,0.17c-1.02,0-2.04,0-3.06,0
			C712.67,121.33,712.67,121.27,712.67,121.21z"/>
		<path class="st57" d="M573.52,1360.01c0.61,0.4,1.01,0.67,1.42,0.94c-0.36,0.51-0.71,1.02-1.07,1.54
			c-0.33-0.37-0.83-0.7-0.93-1.12C572.86,1361.03,573.26,1360.57,573.52,1360.01z"/>
		<path class="st57" d="M230.86,378.7c-0.53,0.56-0.74,0.79-0.94,1.01c-0.38-0.44-0.75-0.87-1.13-1.31c0.27-0.15,0.6-0.49,0.8-0.43
			C230.05,378.12,230.45,378.46,230.86,378.7z"/>
		<path class="st57" d="M1256.43,371.61c-0.81-0.87-1.62-1.74-2.43-2.61c0.23-0.15,0.46-0.3,0.69-0.44
			c0.54,1.06,1.08,2.11,1.62,3.17C1256.3,371.74,1256.43,371.61,1256.43,371.61z"/>
		<path class="st57" d="M185.55,549.36c0.48,0.82,1.57,1.9,1.34,2.41c-2.03,4.63-2.05,10.33-7.76,14.42
			c0.76-6.66,3.14-11.62,4.99-16.74C184.6,549.42,185.07,549.39,185.55,549.36z"/>
		<path class="st57" d="M198.12,511.43c1.19-4.74,3.31-8.33,6.02-12.62C204.95,502.78,202,508.51,198.12,511.43z"/>
		<path class="st57" d="M187,544.71c-0.26,0.16-0.53,0.31-0.79,0.46c-0.15-0.29-0.48-0.77-0.42-0.83c0.28-0.27,0.67-0.41,1.03-0.6
			C186.88,544.07,186.94,544.39,187,544.71z"/>
		<path class="st57" d="M206.76,496.4c-0.37,0.2-0.74,0.41-1.12,0.62c-0.13-0.27-0.43-0.69-0.35-0.79c0.28-0.33,0.69-0.55,1.06-0.81
			C206.46,495.71,206.58,495.98,206.76,496.4z"/>
		<path class="st57" d="M211.82,483.55c-0.19-0.69-0.37-1.38-0.56-2.06c0.23-0.07,0.45-0.13,0.68-0.2c0.21,0.68,0.42,1.36,0.62,2.05
			C212.32,483.41,212.07,483.48,211.82,483.55z"/>
		<path class="st57" d="M933.12,132.59c0.55,1.77,1.1,3.54,1.75,5.64c-4.56-1.2-5.05-2.05-4.3-6.95c0.97,0.53,1.84,1,2.71,1.47
			C933.28,132.76,933.12,132.59,933.12,132.59z"/>
		<path class="st57" d="M1277.35,379.54c4.62-2.17,9.09-4.27,13.61-6.4C1289.87,378.39,1283.19,381.58,1277.35,379.54z"/>
	</g>
</g>
<g>
	<g>
		<path class="st58" d="M1191.98,1162.13c-0.4,0.7-0.66,1.54-1.21,2.09c-16.58,16.49-33.15,33.03-51.56,47.51
			c-12.86,10.11-25.8,20.15-39.21,29.5c-11.34,7.91-23.39,14.79-35.14,22.11c-5.04,3.14-9.95,6.53-15.18,9.3
			c-12.69,6.74-25.45,13.36-38.34,19.71c-10.79,5.31-21.69,10.45-32.76,15.15c-9.42,4-19.12,7.36-28.75,10.85
			c-15.74,5.69-31.58,11.01-48.11,14.06c-5.65,1.04-11.11,3.06-16.74,4.2c-11.09,2.24-22.2,4.42-33.37,6.19
			c-11.73,1.86-23.51,3.51-35.32,4.71c-10.92,1.11-21.9,1.76-32.87,2.12c-14.19,0.46-28.4,0.85-42.59,0.49
			c-21.06-0.52-42.03-2.58-62.88-5.55c-15.3-2.18-30.55-4.76-45.78-7.43c-5.29-0.93-10.43-2.7-15.65-4.05
			c-12.18-3.16-24.55-5.7-36.5-9.57c-16.22-5.26-32.51-10.46-48.07-17.61c-13.56-6.23-27.37-11.95-40.8-18.44
			c-11.96-5.78-23.9-11.76-35.25-18.64c-16.89-10.23-33.32-21.22-49.8-32.11c-5.69-3.76-11.07-8.01-16.35-12.34
			c-12.32-10.12-24.7-20.2-36.66-30.74c-9.41-8.3-18.28-17.21-27.3-25.96c-4.62-4.49-9.14-9.1-13.5-13.84
			c-3.88-4.22-7.45-8.72-11.23-13.04c-2.47-2.83-5.15-5.48-7.57-8.36c-9.83-11.68-20.21-22.96-29.13-35.3
			c-4.59-6.35-10.39-11.74-14.27-18.59c-1.58-2.79-3.35-5.47-5.01-8.21c-5.28-8.72-10.51-17.48-15.83-26.18
			c-3.28-5.36-7.05-10.45-9.98-15.99c-4.52-8.53-8.24-17.49-12.85-25.96c-2.21-4.06-4.44-8.08-6.27-12.33
			c-4.97-11.55-10.15-23-15.01-34.59c-2.98-7.11-5.66-14.35-8.23-21.62c-1.3-3.66-2.02-7.53-3.08-11.28
			c-1.51-5.36-3.1-10.69-4.62-16.04c-1.42-5-3-9.97-4.16-15.03c-2.69-11.73-5.54-23.43-7.64-35.27
			c-2.79-15.73-5.24-31.54-7.24-47.39c-1.5-11.87-2.32-23.84-2.96-35.79c-0.63-11.62,0.05-23.34-1.13-34.88
			c-1.1-10.68,0.87-21.14,0.55-31.73c-0.22-7.13,1.2-14.32,1.88-21.48c0.6-6.25,0.94-12.54,1.86-18.75
			c2.15-14.56,3.31-29.26,6.77-43.65c3.19-13.28,5.69-26.72,8.6-40.07c0.76-3.5,1.85-6.94,2.87-10.38
			c5.63-18.96,11.33-37.9,18.98-56.17c3.82-9.12,7.84-18.15,11.93-27.15c4.77-10.47,9.47-21,14.69-31.25
			c5.13-10.08,10.58-20.02,16.42-29.7c7.33-12.16,14.79-24.28,22.95-35.9c8.47-12.06,17.57-23.71,26.85-35.16
			c14.75-18.19,30.7-35.31,47.53-51.6c29.6-28.65,61.85-53.89,96.73-75.82c22.75-14.3,46.19-27.34,70.56-38.6
			c14.53-6.71,29.58-12.28,44.43-18.28c23.78-9.61,48.48-16.18,73.46-21.74c26.02-5.79,52.27-10.11,78.85-12.62
			c26.04-2.46,52.12-3.52,78.25-2.73c29.37,0.89,58.55,3.98,87.52,8.88c22.55,3.82,45.08,7.88,66.8,15.27
			c15.84,5.39,31.59,11.04,47.31,16.75c21.7,7.89,42.41,17.99,62.91,28.51c33.56,17.22,65.08,37.73,94.99,60.66
			c9.4,7.21,18.03,15.43,26.97,23.25c6.09,5.33,12.31,10.52,18.07,16.19c8.21,8.07,16.25,16.34,24,24.85
			c9.81,10.77,19.44,21.71,28.79,32.88c5.16,6.17,9.13,13.35,14.44,19.38c8.63,9.79,14.01,21.67,21.74,32.06
			c6.93,9.31,12.46,19.73,18.08,29.95c7.97,14.5,15.74,29.13,23.03,43.98c4.99,10.16,9.18,20.73,13.41,31.24
			c4.64,11.5,9.31,23.02,13.24,34.77c3.98,11.94,7.04,24.18,10.56,36.27c4.87,16.76,9.29,33.64,11.82,50.92
			c1.74,11.92,2.95,23.92,4.42,35.89c0.31,2.5,0.85,4.97,1.07,7.48c0.72,8.24,1.53,16.48,1.94,24.73
			c0.69,13.8,1.37,27.61,1.52,41.42c0.09,8.25-0.76,16.52-1.33,24.77c-0.52,7.5-1.24,14.99-2.85,22.43c0-2.95-0.06-5.91,0.01-8.86
			c0.49-19.07,1.42-38.14,1.37-57.21c-0.03-12.39-1.36-24.79-2.31-37.17c-2.4-31.32-8.62-62.01-15.54-92.58
			c-3.59-15.84-8.99-31.1-13.72-46.57c-7.55-24.68-18.12-48.16-28.9-71.53c-11.11-24.08-24.74-46.76-39.07-69.03
			c-15.34-23.83-33.35-45.56-51.98-66.86c-15.93-18.22-33.93-34.3-51.5-50.81c-8.37-7.87-17.83-14.58-26.84-21.77
			c-5.77-4.6-11.54-9.2-17.43-13.64c-3.3-2.49-6.82-4.69-10.28-6.95c-12.64-8.29-25.18-16.74-37.99-24.76
			c-14.35-8.98-29.01-17.43-44.57-24.21c-16-6.98-31.71-14.66-47.93-21.06c-19.92-7.86-40.29-14.5-61.11-19.73
			c-25.18-6.33-50.57-11.6-76.25-15.15c-30.19-4.17-60.59-6.03-91.08-4.89c-17.45,0.65-34.91,1.65-52.31,3.13
			c-10.57,0.9-21.03,2.98-31.53,4.61c-20.66,3.19-41.14,7.3-61.19,13.21c-18.14,5.34-36.26,10.82-54.03,17.24
			c-13.52,4.89-26.5,11.25-39.65,17.12c-27.69,12.36-53.91,27.35-79.28,43.92c-15.54,10.15-30.53,21-44.78,32.88
			c-10.5,8.75-21.3,17.17-31.46,26.31c-9.48,8.53-18.57,17.55-27.33,26.83c-11.61,12.3-23.05,24.78-33.94,37.72
			c-7.63,9.06-14.5,18.79-21.18,28.59c-10.03,14.7-20.02,29.47-29.22,44.7c-6.39,10.58-11.42,21.98-17.06,33.01
			c-1.06,2.08-2.24,4.11-3.2,6.23c-4.21,9.33-8.33,18.69-12.54,28.02c-1.4,3.1-3.08,6.08-4.37,9.22c-1.59,3.86-1.47,3.91-6.51,2.85
			c-1.58,4.92-3.18,9.93-4.99,15.56c6.5-2.16,4.28-9.02,8.09-12.49c1.49,2.2,0.52,4.27-0.13,6.13
			c-5.17,14.73-10.42,29.43-15.68,44.12c-0.5,1.39-0.6,2.81-3.13,2.78c-2.12-0.02-3.04,4.12-1.1,5.45c2.53,1.73,1.8,3.56,1.29,5.64
			c-3.32,13.45-6.94,26.83-9.85,40.37c-1.89,8.78-2.81,17.77-4.03,26.68c-1.46,10.7-3.05,21.39-4,32.13
			c-0.27,2.98-3.58,3.79-3.28,6.27c0.25,2.09,2.33,4.1,2.23,6.07c-0.35,7.15-1.27,14.27-1.99,21.41c-0.13,1.25-0.49,2.49-0.45,3.73
			c0.46,12.2,0.99,24.4,1.5,36.6c0.22,5.21,0.42,10.43,0.67,15.64c0.13,2.73,0.11,5.37-2.58,6.89c6.43,9.23,4.25,18.63,1.63,28.43
			c3.88,0.39,4.67,3.13,5.14,6.08c0.9,5.68,1.79,11.37,2.66,17.05c2.09,13.69,4.62,27.27,8,40.74c5.57,22.19,12.01,44.1,19.12,65.82
			c3.24,9.9,7.74,19.39,11.44,29.15c9.4,24.8,21.79,48.16,34.24,71.48c4.9,9.18,10.65,17.9,15.96,26.86c0.81,1.38,1.39,2.9,1.98,4.4
			c0.84,2.13,1.16,4.59,2.44,6.38c3.08,4.33,5.74,8.88,10.1,12.39c4.09,3.29,7.98,7.26,9.3,12.91c0.33,1.4,1.72,2.7,2.89,3.74
			c4.21,3.77,7.54,8.06,9.89,13.28c1.53,3.39,3.73,6.59,6.15,9.43c5.82,6.84,11.98,13.39,17.94,20.11c2.05,2.32,4.46,3.94,7.16,5.51
			c3.65,2.13,6.79,5.22,9.93,8.13c10.97,10.12,21.65,20.57,32.81,30.47c12.78,11.35,26.15,22.01,40.25,31.68
			c14.25,9.77,28.65,19.33,43.2,28.65c16.24,10.4,33.4,19.19,50.82,27.43c12.21,5.77,24.35,11.78,36.93,16.64
			c14.76,5.71,29.91,10.45,44.99,15.3c10.97,3.53,22,6.97,33.19,9.67c12.94,3.12,26.06,5.6,39.17,7.93
			c11.34,2.02,22.75,3.81,34.19,5.06c14.31,1.57,28.67,3.05,43.04,3.54c18.89,0.64,37.84,0.79,56.73,0.17
			c14.56-0.48,29.06-2.52,43.59-3.76c23.76-2.04,47.09-6.83,70.16-12.47c32.38-7.93,64.05-18.19,94.78-31.35
			c15.92-6.82,31.13-15.01,46.71-22.46c22.69-10.86,43.21-25.27,64-39.11c12.65-8.43,24.96-17.62,36.31-27.97
			c9.84-8.97,20.31-17.23,30.29-26.05c5.39-4.76,10.31-10.04,15.46-15.08c0.72-0.71,1.52-1.34,2.29-2.01
			C1191.6,1161.82,1191.79,1161.98,1191.98,1162.13z M185.55,549.36c-0.48,0.03-0.95,0.06-1.43,0.09
			c-1.85,5.12-4.24,10.08-4.99,16.74c5.71-4.09,5.74-9.79,7.76-14.42C187.12,551.26,186.03,550.17,185.55,549.36z M198.12,511.43
			c3.87-2.91,6.83-8.65,6.02-12.62C201.44,503.1,199.31,506.69,198.12,511.43z M187,544.71c-0.06-0.32-0.12-0.64-0.18-0.96
			c-0.35,0.19-0.75,0.33-1.03,0.6c-0.06,0.06,0.27,0.54,0.42,0.83C186.48,545.02,186.74,544.87,187,544.71z M206.76,496.4
			c-0.18-0.43-0.3-0.7-0.41-0.97c-0.36,0.26-0.78,0.48-1.06,0.81c-0.08,0.1,0.22,0.51,0.35,0.79
			C206.02,496.82,206.39,496.61,206.76,496.4z M211.82,483.55c0.25-0.07,0.5-0.14,0.74-0.21c-0.21-0.68-0.42-1.36-0.62-2.05
			c-0.23,0.07-0.45,0.13-0.68,0.2C211.45,482.17,211.63,482.86,211.82,483.55z"/>
		<path class="st58" d="M569.89,1377.13c3.02,0,6.04,0.12,9.05-0.03c4.25-0.22,7.21-3.44,10.9-5c0.56-0.24,1.14-1.04,1.23-1.65
			c0.99-6.73,7.6-7.57,11.72-10.92c1.07-0.87,3.77,0.12,5.68,0.47c1.74,0.32,3.4,1.14,5.15,1.36c13.01,1.69,26.09,2.95,39.05,5
			c20.64,3.28,41.33,5.76,62.17,7.4c38.2,3.01,76.3,1.85,114.28-2.61c19.11-2.25,38.06-5.9,57.11-8.68
			c6.36-0.93,12.89-1.88,19.22-1.33c4.5,0.39,10.14,0.13,12.96,5.69c0.5,0.98,2.95,0.97,5.5,1.71c2.07,4.41,7.51,4.98,12.53,5.85
			c5.64,0.98,11.41,1.22,17.12,1.79c-1.07,2.02-3.25,2.18-5.44,2.57c-5.4,0.97-10.75,0.46-16.08-0.31
			c-16.59-2.4-33.23-3.44-49.99-2.21c-5.16,0.38-10.36,0.16-15.53,0.45c-2.65,0.15-5.27,1.05-7.92,1.19
			c-4.29,0.23-8.6,0.07-12.9,0.18c-9.52,0.23-19.03,0.66-28.55,0.75c-15.02,0.15-30.05,0.07-45.07,0.11
			c-10.38,0.03-20.82,0.75-31.14,0c-9.47-0.69-18.91,0.35-28.37-0.64c-5.85-0.61-11.82,0.11-17.73-0.05
			c-9.14-0.26-18.28-0.73-27.41-1.17c-5.89-0.28-11.77-0.77-17.66-0.98c-7.53-0.27-15.06-0.39-22.59-0.53
			c-11.04-0.21-21.77,2.11-32.59,3.82C586.19,1380.66,577.89,1379.89,569.89,1377.13z"/>
		<path class="st58" d="M182.41,993.71c-6.44-16.19-13.11-32.28-19.25-48.58c-9.8-25.98-16.61-52.88-23.07-79.83
			c-3.55-14.83-5.54-30.06-7.84-45.17c-1.57-10.31-2.72-20.7-3.61-31.1c-1.94-22.61-2.18-45.24-1.37-67.93
			c0.87-24.33,3.46-48.46,6.98-72.51c4.62-31.57,11.44-62.67,21.03-93.13c11.27-35.79,25.53-70.36,42.59-103.78
			c10.74-21.03,23-41.16,36.14-60.76c0.78-1.16,1.76-2.19,3.33-2.91c-0.69,1.24-1.29,2.54-2.07,3.72
			c-12.47,18.75-23.79,38.17-34.26,58.1c-9.81,18.66-18.65,37.75-25.88,57.54c-5.73,15.69-10.86,31.61-16.14,47.47
			c-0.74,2.21-2.21,4.47-0.37,7.07c0.49,0.7-0.3,2.37-0.63,3.56c-9.89,35.82-16.24,72.32-20.25,109.2
			c-1.63,15-1.76,30.16-2.43,45.26c-0.61,13.82-0.95,27.66-1.56,41.48c-0.97,21.97-0.4,43.87,3.26,65.6
			c1.91,11.35,3.58,22.78,6.37,33.92c5.11,20.38,8.42,41.19,14.68,61.29c7.17,23.03,14.93,45.85,24.5,68.01
			c0.42,0.96,0.79,1.94,1.18,2.91C183.29,993.35,182.85,993.53,182.41,993.71z"/>
		<path class="st58" d="M150.62,967.82c-0.51-0.17-0.96-0.36-1.42-0.47c-0.47-0.11-0.97-0.15-1.61-0.25
			c-0.25-4.91,0-9.84-3.17-14.33c-1.35,0.45-2.65,0.88-4.01,1.33c-0.06,0.66-0.21,1.19-0.13,1.67c0.31,1.77,0.91,3.52,0.99,5.29
			c0.05,1.11-0.31,2.57-1.05,3.33c-2.25,2.32-4.67,4.49-7.2,6.49c-2.4,1.89-5,3.26-8.37,2.99c-2.27-0.19-4.79,0.11-6.91,0.94
			c-7.06,2.74-11.74-0.82-16.01-5.61c-1.31-1.47-2.3-3.21-3.54-4.99c1.3-3.14,1.4-6.86,4.66-9.75c0.57,1.45,0.99,2.52,1.58,4.03
			c8.61-10.63,17.03-10.9,25.12,0.97c-1.43-10.49-8.97-13.28-24.16-8.82c1.75-1.45,2.69-2.64,3.91-3.14
			c3.53-1.44,6.61-3.35,9.31-6.11c1.91-1.95,6.28-1.66,8.33,0.65c3.81,4.29,8.04,3.04,12.54,1.79c1.49-0.42,3.19-0.07,5.24-0.07
			c-1.19-6.57-7.23-8.21-11.68-10.47c-4.75-2.41-10.53-2.79-15.94-4.08c0.84-0.45,1.85-1.13,2.95-1.57
			c7.87-3.11,15.73-6.24,23.64-9.23c4.74-1.8,5.46-1.42,7,3.37c3.69,11.47,7.25,22.99,11.03,34.43c1.58,4.77,3.73,9.35,5.42,14.08
			c1.58,4.47,1.18,5.36-3.23,6.74c-6.25,1.96-12.22,5.01-19.43,5.42C147.38,977.69,150.7,973.53,150.62,967.82z M122.99,969.77
			c-2.72-3.66-6.23-2.38-9.46-2.07c-0.87-2.63-1.48-5.17-4.53-5.6c-2.07,4.14-0.94,7.35,3.47,9.96
			C116.83,974.63,119.89,974.01,122.99,969.77z M121.49,956.13c-4.11-4.76-7.13-5.45-10.16-2.12c-0.78,0.86-1.44,2.96-0.97,3.56
			c0.69,0.88,2.57,1.45,3.73,1.2C116.61,958.21,119,957.06,121.49,956.13z M122.42,964.79c2.97,1.1,3.4-0.24,3.41-1.98
			c0-0.41-0.4-0.81-0.83-1.62C124.14,962.41,123.47,963.34,122.42,964.79z M160.77,958.29c-0.33-0.07-0.66-0.14-1-0.22
			c-0.24,0.9-0.48,1.79-0.72,2.69c0.37,0.09,0.73,0.18,1.1,0.28C160.35,960.12,160.56,959.2,160.77,958.29z"/>
		<path class="st58" d="M1343.46,957.58c3.94-12.31,8.14-24.54,11.76-36.93c10.17-34.78,17.58-70.14,22.23-106.12
			c2.78-21.48,3.58-43.03,3.97-64.61c0.14-7.73-0.5-15.46-0.7-23.2c-0.11-4.11-2.01-7.48-4.04-10.85c-0.81-1.35-1.99-2.76-2.1-4.22
			c-0.53-7.17-0.78-14.36-1.09-21.54c-0.24-5.56-0.5-11.11-0.59-16.67c-0.06-3.38,0.3-6.76,0.27-10.14
			c-0.04-4.3,0.24-8.7-0.52-12.89c-3.41-18.76-7.04-37.48-10.81-56.16c-1.35-6.69-3.34-13.25-5-19.88
			c-0.32-1.29-0.45-2.63-0.23-3.97C1397.9,700.95,1394.11,830.05,1343.46,957.58z"/>
		<path class="st58" d="M87.91,984.7c0.83,2.27,1.88,4.49,2.42,6.83c0.37,1.6,0.74,3.96-0.11,4.93c-2.29,2.64-5.23,4.72-7.93,7.05
			c-10-5.26-14.64-14.08-17.14-24.33c-0.69-2.81-1.73-5.86,0.68-8.53c3.62,0.6,2.02,6.13,6.56,6.02c-0.35-1.76-0.64-3.24-0.94-4.73
			c3.68-2.83,5.02-9.56,2.62-13.22c-1.02-1.54-2.44-2.02-4.21-1.51c-1.43,0.41-2.87,0.79-4.3,1.19c-0.15-0.37-0.31-0.74-0.46-1.1
			c0.72-0.46,1.39-1.17,2.18-1.32c2.78-0.53,5.72-0.48,8.35-1.38c2.77-0.96,3.45,1.7,5.87,2.93c-0.81-3.34-1.43-5.88-2.1-8.61
			c3.34-3.09,7.6-2.85,11.47-3.8c2.7,3.09-0.1,5.53-0.5,8.33c0.67,0.82,1.42,1.74,2.19,2.68c-2.3,1.94-4.4,3.71-7.14,6.03
			c7.36,2.69,8.48,9.65,12.65,14.13c1.79,1.93,2.87,4.52,4.23,6.84c1.35,2.3,0.98,5.1-0.76,6.25c-2.33,1.54-5.47,1.14-7.2-0.63
			c-1.66-1.71-3.56-3.18-5.35-4.76C88.63,984.21,88.27,984.46,87.91,984.7z"/>
		<path class="st58" d="M933.12,132.59c3.52,2.11,6.93,4.45,10.6,6.26c4.5,2.23,7.95,0.02,8.17-4.92c0.04-0.89-0.14-1.79-0.29-2.67
			c-0.37-2.22,1.06-2.91,2.79-3.07c4.69-0.45,4.98-0.64,5.71-4.88c0.17-1.02,0.25-2.06,0.39-3.25c1.06,0.46,1.81,0.79,3.2,1.4
			c-0.54-2.64-0.98-4.81-1.48-7.28c7.87,2.38,11.11,7.8,11.72,15.14c-1.85,2.4-3.66,4.74-5.84,7.57c-1.46-0.53-3.22-1.18-5.33-1.95
			c-0.87,2.46-1.97,4.88-2.53,7.41c-0.54,2.44-1,4.72-4.05,4.77c-2.66,0.05-4.36-2.01-5.04-6.09c-1.87,0-3.87-0.31-5.75,0.06
			c-4.94,0.97-9.39-0.15-13.97-1.98c-4.14-1.65-8.63-2.41-12.93-3.66c-2.53-0.73-5-1.65-8.29-2.74c2.77-1.95,5.12-1.7,7.32-1.95
			c2.1-0.24,4.21-0.35,6.02-0.49c0.84-2.7,1.8-4.82,2.07-7.03c0.13-1.1-0.72-2.98-1.64-3.41c-2.87-1.36-2.37-3.17-1.37-5.32
			c2.33-5.03,9.07-8.83,14.55-8.18c1.07,0.13,2.14,0.28,3.2,0.49c0.33,0.06,0.62,0.33,1.13,0.63c-3.54,2.39-7.41,4.3-10.35,7.17
			c-3.03,2.96-3.58,7.23-3.19,12.87c1.68-2.37,2.66-3.76,3.76-5.31c2.28,3.48,1.89,7.04,1.59,10.59c-0.87-0.47-1.74-0.94-2.71-1.47
			c-0.75,4.91-0.27,5.76,4.3,6.95C934.22,136.13,933.67,134.36,933.12,132.59z"/>
		<path class="st58" d="M1358.5,801.95c0,3.44,0.32,6.91-0.06,10.31c-0.97,8.57-2.01,17.15-3.48,25.64
			c-2.55,14.7-5.52,29.32-8.17,44.01c-3.55,19.66-9.77,38.61-15.42,57.69c-2.59,8.73-6.57,17.1-10.42,25.4
			c-8.01,17.26-16.35,34.36-24.6,51.51c-0.74,1.55-1.76,2.96-3.04,4.26C1326.68,951.27,1349.55,878.72,1358.5,801.95z"/>
		<path class="st58" d="M1286.6,399.73c-4.52-2.23-15.65-16.09-18.98-22.58c-2.61-5.08-2.61-5.08-1.97-8.98
			c2.41,1.91,3.62-1.97,6.39-0.88c2.11,0.83,4.71,0.44,7.32,0.6c-0.33,2.42-0.59,4.31-0.89,6.47c5.42,1.08,7.88-1.76,11.09-5.47
			c3.31-3.83,3.25-7.94,4.64-12.23c0.56,1.4,1.12,2.81,1.81,4.57c0.39-1.33,0.71-2.4,1.36-4.61c3.07,5.15,6.12,9.23,8.21,13.91
			c0.81,1.82,0.34,3.53-1.15,4.9c-1.72,1.58-3.61,3.02-5.14,4.76c-2.64,3.01-5.36,5.15-9.78,3.88c-1.97-0.57-3.57,0.79-3.82,2.86
			c-0.27,2.25-0.25,4.55-0.13,6.82C1285.66,395.41,1286.12,397.05,1286.6,399.73z M1277.35,379.54c5.84,2.04,12.53-1.15,13.61-6.4
			C1286.44,375.27,1281.96,377.37,1277.35,379.54z"/>
		<path class="st58" d="M525.55,122.46c-0.39,3.52-0.7,6.29-1.15,10.35c1.28-1.99,1.93-3,3.01-4.67c0.49,2.63,0.86,4.6,1.21,6.48
			c3.85,1.34,8.14,1.02,10.73,4.46c-1.95,5.78-1.95,5.78-0.46,9.11c-5.02,4.71-5.22,3.9-11.07,1.73c-5.76-2.14-8.02-5.49-8.78-11.1
			c-0.22-1.61-2.27-2.97-3.72-4.73C516,128.53,519.41,124.98,525.55,122.46z"/>
		<path class="st58" d="M205.11,397.7c-2.71-1.59-4.81-2.33-5.27-5.2c-1.34-8.26-0.86-11.71,3-16.58c1.91,5.92,5.58,10.4,9.93,14.36
			c2.02,1.84,4.24,3.43,7.16,3.26c0.8-0.05,1.57-0.51,2.56-0.85c-1.46-3.68-5.55-0.32-6.88-3.32c2.57-6.56,6.79-8.94,13.98-7.73
			c1.67,4.88,0.29,10.47-3.63,13.24c-1.15,0.81-3.12,1.2-4.46,0.84c-2.92-0.78-5.71-2.11-8.49-3.33c-1.58-0.7-3.05-1.64-4.58-2.47
			C207.26,392.66,206.31,394.88,205.11,397.7z"/>
		<path class="st58" d="M1420.52,738.48c-6.74-14.1-18.01-14.61-31.18-10.33c-2.64-6.73-1.33-13.45-2-19.98
			c0.38-0.13,0.76-0.26,1.15-0.4c0.69,1.1,1.54,2.13,2.03,3.3c0.89,2.15,1.46,4.44,2.36,6.59c0.94,2.25,2.39,3.4,5.1,2.27
			c1.41-0.59,3.17-0.69,4.72-0.52c3.87,0.42,7.78,0.88,11.55,1.79c2.92,0.7,5.19,2.81,5.9,5.79c0.85,3.58,1.19,7.28,1.75,10.93
			C1421.43,738.1,1420.97,738.29,1420.52,738.48z"/>
		<path class="st58" d="M538.47,156.55c52.9-19.5,107.49-31.36,163.91-34.5C646.48,127.5,591.73,138.29,538.47,156.55z"/>
		<path class="st58" d="M1259.96,350c-1.54-1.82-3.09-3.64-4.89-5.75c0.9-2.3,2.84-3.33,5.58-3.67c1.66-0.21,3.94-0.78,4.67-1.97
			c1.79-2.91,4.74-3.07,7.35-3.87c1.36-0.42,3.33-0.14,4.56,0.61c2.56,1.55,4.8,3.61,7.96,6.07c-2.81,0.61-4.65,1.33-6.5,1.35
			c-5.65,0.05-10.44,2.22-14.97,5.33c-1.16,0.8-2.6,1.18-3.91,1.76L1259.96,350z"/>
		<path class="st58" d="M565.13,122.04c-0.94,0.44-1.68,0.79-2.64,1.24c0,2.65,1.4,4.56,3.26,6.36c2.74,2.65,2.85,3.82,0.37,6.77
			c-1.48,1.76-3.38,3.16-5.07,4.71c-1.91-1.57-3.67-3.03-6.13-5.05c0.15-1.19,0.41-3.2,0.79-6.19c1.32,1.83,2,2.77,3.02,4.18
			c0.81-1.19,2.09-2.23,1.96-3.03c-0.45-2.59-0.88-5.45-2.32-7.52c-1.56-2.25-4.13-3.88-6.45-5.51c-1.57-1.1-3.48-1.74-5.66-2.8
			c1.96-1.89,4.12-2.2,5.98-1.38c3.91,1.73,7.66,3.85,11.39,5.95C564.28,120.13,564.58,121.18,565.13,122.04z"/>
		<path class="st58" d="M212.24,361.46c3.36-4.7,7.7-7.92,13.44-8.8c1.8-0.28,3.91,0.26,5.65,0.98c2.13,0.88,4.02,2.34,6.02,3.53
			c1.72,1.03,2.77,2.29,1.67,4.4c-1.16,2.23-3.32,3.44-5.2,2.44c-6.71-3.55-13.69-3.59-20.87-2.04
			C212.82,362,212.66,361.78,212.24,361.46z"/>
		<path class="st58" d="M100.81,763.76c3.07-6.22,7.85-2.82,12.18-2.66c0.81-2.22-0.74-3.75-1.34-5.48
			c-0.94-2.7,0.36-3.51,2.76-3.45c2.99,6.88,2.99,6.88,9.1,6.97c1.52,1.45,2.11,3.36,0.93,5.19c-1.27,1.98-3.49,2.69-5.69,1.8
			c-3.91-1.57-7.46-1.63-11.25,0.59C104.54,768.44,102.47,766.59,100.81,763.76z"/>
		<path class="st58" d="M1397.01,764.22c10.01,0.58,18.74-1.93,23.97-11.73c0.31,3.24,0.06,6.24-2.23,8.72
			c-1.7,1.84-3.5,3.57-5.23,5.38c-1.88,1.97-4.06,2.56-6.8,2.15c-2.24-0.34-4.58-0.03-6.88,0.03
			C1397.15,768.84,1396.88,768.47,1397.01,764.22z"/>
		<path class="st58" d="M106.84,736.76c0.32,1.98,0.57,3.51,0.85,5.21c3.16-0.55,6.05-1.04,8.93-1.54c0.19,0.37,0.39,0.75,0.58,1.12
			c-0.78,0.59-1.6,1.76-2.32,1.69c-6.24-0.55-10.04,2.75-13.14,7.63c-0.84,1.32-2.5,2.12-4.27,3.56c-0.58-1.83-1.43-3.07-1.1-3.7
			c2.5-4.73,3.54-10.41,8.48-13.61C105.25,736.86,105.87,736.92,106.84,736.76z"/>
		<path class="st58" d="M1264.92,383.64c1.05,0.89,2.39,1.58,3.1,2.68c9.65,14.91,19.25,29.87,28.77,44.87
			c0.93,1.47,1.3,3.3,1.92,4.96l0.12-0.13c-1.6-2.07-3.37-4.03-4.76-6.23c-9.3-14.62-18.52-29.3-27.75-43.96
			c-0.47-0.75-0.87-1.54-1.29-2.32C1265.04,383.51,1264.92,383.64,1264.92,383.64z"/>
		<path class="st58" d="M558.1,1349.42c1.59-4.46,4.01-4.2,5.62-3.76c3.41,0.94,6.93,2.11,9.82,4.06c1.51,1.02,2.19,3.84,2.46,5.95
			c0.18,1.43-1.59,1.84-2.86,1.09c-2.16-1.26-4.29-2.61-6.28-4.12C564.43,1350.81,563.1,1347.18,558.1,1349.42z"/>
		<path class="st58" d="M1259.82,349.85c-0.38,2.78-0.76,5.56-1.2,8.74c-0.42,0.09-1.33,0.59-2.07,0.4
			c-2.95-0.75-7.89-6.93-8.16-9.97c-0.22-2.4,1.35-3.51,3.85-2.52c2.62,1.04,5.16,2.31,7.73,3.49
			C1259.96,350,1259.82,349.85,1259.82,349.85z"/>
		<path class="st58" d="M947.12,124.87c-3.9,0.05-5.67-1.06-5.53-3.44c0.16-2.52,3.16-5.88,5.32-5.94c2.52-0.07,5.84,3.27,5.93,5.98
			C952.92,123.63,950.91,124.82,947.12,124.87z"/>
		<path class="st58" d="M1283.87,363.93c-0.65-0.14-1.57-0.21-2.39-0.56c-1.63-0.69-3.51-1.25-3.32-3.62
			c0.2-2.48,2.57-4.94,4.83-4.98c0.71-0.01,1.44,0.12,2.13,0.29c2.77,0.66,5.05,3.49,4.68,5.75
			C1289.54,362.45,1286.7,364.01,1283.87,363.93z"/>
		<path class="st58" d="M949.82,1348.96c1.13-2.54,3.17-3.8,6.47-3.23c3.13,0.54,6.33,0.62,9.45,1.19c0.95,0.17,1.72,1.3,2.58,1.98
			c-0.74,0.86-1.48,2.45-2.24,2.46c-2.81,0.04-5.64-0.34-8.44-0.76C955.04,1350.19,952.47,1349.52,949.82,1348.96z"/>
		<path class="st58" d="M215.29,381.77c-3.42,0.05-5.85-1.3-5.87-3.25c-0.03-2.36,3.73-5.77,6.21-5.64
			c2.29,0.12,5.22,3.08,5.24,5.29C220.9,380.4,218.86,381.71,215.29,381.77z"/>
		<path class="st58" d="M1391.4,748.69c-0.17,1.6-0.29,2.76-0.49,4.62c-0.78-1.12-1.29-1.73-1.68-2.41
			c-2.38-4.17-1.79-8.05,1.8-13.01c-0.36,4.17,1.14,5.58,3.99,5.83c1.95,0.17,4.49,0.55,3.81,3.25c-0.63,2.51-2.95,2.74-5.27,1.92
			C1393.1,748.72,1392.54,748.78,1391.4,748.69z"/>
		<path class="st58" d="M308.9,1178.15c-9.03-7.59-17.21-16-24.25-25.48C293.92,1160.05,301.66,1168.86,308.9,1178.15z"/>
		<path class="st58" d="M538.75,133.04c-3.33,0-4.95-1.16-4.93-3.53c0.03-2.8,2.7-5.76,5.28-5.83c2.49-0.07,5.27,2.99,5.24,5.78
			C544.32,131.78,542.35,133.05,538.75,133.04z"/>
		<path class="st58" d="M1387.44,782.14c0.22-4.84,0.29-9.69,0.73-14.51c0.31-3.35,1.12-3.65,5.79-2.73
			c-1.3,6.01-3.03,11.84-4.95,17.61C1388.48,782.39,1387.96,782.26,1387.44,782.14z"/>
		<path class="st58" d="M111.95,780.69c-5.55,3.1-8.77-0.65-12.21-3.05c-2.88-2.01-2.81-2.27-1.97-5.95
			C102.44,774.65,106.97,777.53,111.95,780.69z"/>
		<path class="st58" d="M1405,748.25c2.19-4.99,5.6-6,8.43-3.21c0.65,0.64,1.24,1.96,1.02,2.71c-0.23,0.78-1.52,1.79-2.3,1.75
			C1409.94,749.38,1407.75,748.77,1405,748.25z"/>
		<path class="st58" d="M194.74,410.25c-4.61-2.09-4.87-5.79-1.31-11.84C197.33,402.16,194.94,406.11,194.74,410.25z"/>
		<path class="st58" d="M1264.35,364.55c-4.52-7.08-4.4-7.82,1.22-9.82C1267.29,358.1,1266.02,361.11,1264.35,364.55z"/>
		<path class="st58" d="M937.79,128.28c1.78,0.16,3.49,0.32,5.63,0.51c0.21,2.27,0.4,4.32,0.61,6.51
			C938.95,134.3,938.3,133.55,937.79,128.28z"/>
		<path class="st58" d="M1280.95,346.78c-3.49,0.9-6.97,1.8-11.33,2.93C1273.09,345.46,1276.71,344.78,1280.95,346.78z"/>
		<path class="st58" d="M564.03,1352.75c1.46,1.39,2.58,2.18,3.29,3.24c0.37,0.55,0.21,1.67-0.09,2.36
			c-0.2,0.46-1.31,1.01-1.63,0.83c-0.83-0.46-1.86-1.21-2.04-2.02C563.31,1356.06,563.76,1354.8,564.03,1352.75z"/>
		<path class="st58" d="M238.2,372.97c1.04,3.06-1.44,4.12-2.08,6.14C233.07,375.74,233.24,375.24,238.2,372.97z"/>
		<path class="st58" d="M215.54,1100.2c0.15-2.92,0.24-4.72,0.33-6.47c2.6-0.59,3.57,0.72,3.79,2.3
			C219.95,1098.14,218.3,1098.91,215.54,1100.2z"/>
		<path class="st58" d="M548.49,142.07c-1.74-1.25-2.77-2-4.04-2.92c1.41-1.91,2.58-3.5,4.04-5.48
			C548.49,136.37,548.49,138.59,548.49,142.07z"/>
		<path class="st58" d="M1298.72,436.15c3.37,3.24,4.73,7.59,7.01,11.44c-0.4,0.21-0.8,0.42-1.19,0.63c-1.9-4.06-3.8-8.12-5.7-12.18
			C1298.84,436.02,1298.72,436.15,1298.72,436.15z"/>
		<path class="st58" d="M749.99,120.08c4.6,0,9.2,0,13.8,0c0,0.09,0,0.18,0,0.27c-4.56,0-9.12,0-13.69,0
			C750.07,120.27,750.03,120.17,749.99,120.08z"/>
		<path class="st58" d="M1256.3,371.74c4.14,3.04,7.18,6.89,8.62,11.89c0,0.01,0.11-0.12,0.11-0.11c-2.87-3.96-5.74-7.94-8.61-11.91
			L1256.3,371.74z"/>
		<path class="st58" d="M553.1,143.11c-1.21,2.76-3.96,3.17-6.15,4.42c-0.22-0.32-0.45-0.64-0.67-0.96
			c1.99-1.46,3.99-2.91,5.98-4.37C552.55,142.51,552.82,142.81,553.1,143.11z"/>
		<path class="st58" d="M1267.65,358.51c1.76-1.6,2.89-2.62,4.58-4.16c0.61,1.88,0.99,3.04,1.55,4.74
			C1271.67,358.89,1270.2,358.75,1267.65,358.51z"/>
		<path class="st58" d="M787.65,121.39c-3.55,0-7.1,0-10.66,0c0-0.11,0-0.22,0-0.33c3.58,0,7.16,0,10.74,0
			C787.71,121.16,787.68,121.27,787.65,121.39z"/>
		<path class="st58" d="M221.3,401.45c-0.93,0.45-1.85,0.91-2.78,1.36c-0.34-0.72-0.68-1.44-1.03-2.16
			c1.06-0.33,2.12-0.66,3.18-0.99C220.89,400.25,221.09,400.85,221.3,401.45z"/>
		<path class="st58" d="M1287.51,1031.01c1.05-2.12,2.1-4.24,3.15-6.35c0.27,0.13,0.55,0.26,0.82,0.39
			c-1.04,2.12-2.08,4.24-3.12,6.37C1288.08,1031.28,1287.8,1031.14,1287.51,1031.01z"/>
		<path class="st58" d="M241.06,381.59c1.02-1.5,2.04-3.01,3.06-4.51c0.27,0.18,0.53,0.35,0.8,0.53c-1.08,1.46-2.17,2.91-3.25,4.37
			C241.47,381.85,241.27,381.72,241.06,381.59z"/>
		<path class="st58" d="M228.81,367.47c-2.01-0.62-4.01-1.24-6.02-1.86c0.08-0.28,0.17-0.56,0.25-0.84
			c2.01,0.61,4.02,1.21,6.04,1.82C228.99,366.89,228.9,367.18,228.81,367.47z"/>
		<path class="st58" d="M121.7,750.31c-1.52-0.72-3.04-1.45-4.56-2.17c0.11-0.26,0.22-0.52,0.34-0.78c1.6,0.64,3.21,1.28,4.81,1.92
			C122.09,749.62,121.89,749.97,121.7,750.31z"/>
		<path class="st58" d="M798.49,121.95c1.89,0.09,3.79,0.17,5.68,0.26c0,0.07-0.01,0.14-0.01,0.21c-1.9,0-3.79,0-5.69,0
			C798.48,122.26,798.49,122.1,798.49,121.95z"/>
		<path class="st58" d="M825.78,124.79c-1.2-0.07-2.4-0.14-3.6-0.21c0-0.03,0.01-0.06,0.01-0.09c1.2,0,2.4,0,3.59,0
			C825.78,124.59,825.78,124.69,825.78,124.79z"/>
		<path class="st58" d="M712.67,121.21c1.02,0,2.04,0,3.06,0c0,0.06,0,0.11,0,0.17c-1.02,0-2.04,0-3.06,0
			C712.67,121.33,712.67,121.27,712.67,121.21z"/>
		<path class="st58" d="M573.52,1360.01c0.61,0.4,1.01,0.67,1.42,0.94c-0.36,0.51-0.71,1.02-1.07,1.54
			c-0.33-0.37-0.83-0.7-0.93-1.12C572.86,1361.03,573.26,1360.57,573.52,1360.01z"/>
		<path class="st58" d="M230.86,378.7c-0.53,0.56-0.74,0.79-0.94,1.01c-0.38-0.44-0.75-0.87-1.13-1.31c0.27-0.15,0.6-0.49,0.8-0.43
			C230.05,378.12,230.45,378.46,230.86,378.7z"/>
		<path class="st58" d="M1256.43,371.61c-0.81-0.87-1.62-1.74-2.43-2.61c0.23-0.15,0.46-0.3,0.69-0.44
			c0.54,1.06,1.08,2.11,1.62,3.17C1256.3,371.74,1256.43,371.61,1256.43,371.61z"/>
		<path class="st58" d="M185.55,549.36c0.48,0.82,1.57,1.9,1.34,2.41c-2.03,4.63-2.05,10.33-7.76,14.42
			c0.76-6.66,3.14-11.62,4.99-16.74C184.6,549.42,185.07,549.39,185.55,549.36z"/>
		<path class="st58" d="M198.12,511.43c1.19-4.74,3.31-8.33,6.02-12.62C204.95,502.78,202,508.51,198.12,511.43z"/>
		<path class="st58" d="M187,544.71c-0.26,0.16-0.53,0.31-0.79,0.46c-0.15-0.29-0.48-0.77-0.42-0.83c0.28-0.27,0.67-0.41,1.03-0.6
			C186.88,544.07,186.94,544.39,187,544.71z"/>
		<path class="st58" d="M206.76,496.4c-0.37,0.2-0.74,0.41-1.12,0.62c-0.13-0.27-0.43-0.69-0.35-0.79c0.28-0.33,0.69-0.55,1.06-0.81
			C206.46,495.71,206.58,495.98,206.76,496.4z"/>
		<path class="st58" d="M211.82,483.55c-0.19-0.69-0.37-1.38-0.56-2.06c0.23-0.07,0.45-0.13,0.68-0.2c0.21,0.68,0.42,1.36,0.62,2.05
			C212.32,483.41,212.07,483.48,211.82,483.55z"/>
		<path class="st58" d="M933.12,132.59c0.55,1.77,1.1,3.54,1.75,5.64c-4.56-1.2-5.05-2.05-4.3-6.95c0.97,0.53,1.84,1,2.71,1.47
			C933.28,132.76,933.12,132.59,933.12,132.59z"/>
		<path class="st58" d="M1277.35,379.54c4.62-2.17,9.09-4.27,13.61-6.4C1289.87,378.39,1283.19,381.58,1277.35,379.54z"/>
	</g>
</g>
</svg>
